#!OML:ASF F:\VICON\USERDATA\INSTALL\rory3\rory3.ASF
:FULLY-SPECIFIED
:DEGREES
1287
root 2.33815 17.498 -0.837767 -166.272 231.938 -183.963
lowerback 9.42515 -2.6966 -5.78944
upperback 3.46953 -4.08769 3.65715
thorax -0.968754 -2.15275 7.49897
lowerneck -7.27182 -1.17083 -13.2506
upperneck 41.451 -1.52735 2.92616
head 16.2538 -2.80067 3.30494
rclavicle 5.93621e-014 -1.95306e-014
rhumerus -40.1813 8.16291 -80.2022
rradius 65.0484
rwrist 18.8204
rhand -35.9302 4.63068
rfingers 7.12502
rthumb -9.04244 -25.1555
lclavicle 5.93621e-014 -1.95306e-014
lhumerus -29.7281 -19.7671 90.7731
lradius 49.0067
lwrist -4.61572
lhand -17.3927 19.4095
lfingers 7.12502
lthumb 8.85642 49.2037
rfemur -34.8715 3.04524 -4.19754
rtibia 32.0775
rfoot 9.66331 -24.4278
rtoes 10.9054
lfemur -23.7675 -3.80173 -5.34373
ltibia 31.0214
lfoot -15.5534 -11.2688
ltoes -21.9536
1288
root 2.24297 17.4681 -0.917817 -166.133 231.766 -184.02
lowerback 9.45277 -2.5179 -5.73781
upperback 3.57019 -3.8485 3.57603
thorax -0.929479 -2.03638 7.36133
lowerneck -7.21811 -1.1995 -13.1908
upperneck 41.327 -1.6039 3.03485
head 16.1789 -2.79414 3.33173
rclavicle 9.077e-014 1.64991e-014
rhumerus -40.1637 9.0841 -80.612
rradius 65.697
rwrist 19.4673
rhand -36.4385 5.29706
rfingers 7.12502
rthumb -9.53292 -24.4673
lclavicle 9.077e-014 1.64991e-014
lhumerus -29.8624 -20.1727 90.8192
lradius 49.092
lwrist -4.84927
lhand -16.6327 18.2613
lfingers 7.12502
lthumb 9.58971 48.023
rfemur -34.0674 3.52365 -4.08729
rtibia 31.686
rfoot 8.16028 -23.0294
rtoes 5.63138
lfemur -23.9897 -3.78482 -4.85021
ltibia 31.351
lfoot -15.8195 -11.1089
ltoes -22.6541
1289
root 2.15272 17.4301 -1.00166 -166.4 231.4 -183.735
lowerback 9.83948 -2.34826 -5.77401
upperback 3.5797 -3.64473 3.49495
thorax -1.16986 -1.92404 7.30351
lowerneck -7.16731 -1.26317 -13.367
upperneck 41.4317 -1.73575 3.24668
head 16.2442 -2.84953 3.44259
rclavicle -1.29011e-013 2.61899e-014
rhumerus -40.2691 9.91456 -80.9401
rradius 66.3355
rwrist 20.0989
rhand -36.9551 5.08062
rfingers 7.12502
rthumb -10.0313 -24.6603
lclavicle -1.29011e-013 2.61899e-014
lhumerus -30.0811 -20.6009 90.9784
lradius 49.1924
lwrist -5.15138
lhand -15.7263 17.5105
lfingers 7.12502
lthumb 10.4642 47.2301
rfemur -33.0369 3.67094 -4.01768
rtibia 31.3077
rfoot 6.47318 -20.9426
rtoes 0.515599
lfemur -24.2378 -4.03023 -4.51802
ltibia 31.8436
lfoot -16.0377 -11.0799
ltoes -22.8634
1290
root 2.05986 17.3875 -1.07923 -166.578 231.158 -183.524
lowerback 10.0612 -2.1492 -5.63735
upperback 3.60608 -3.3794 3.35158
thorax -1.32708 -1.78269 7.06077
lowerneck -6.94808 -1.27865 -13.6124
upperneck 41.3727 -1.87368 3.65572
head 16.1804 -2.88426 3.65042
rclavicle 2.41026e-015 3.18552e-014
rhumerus -40.4065 10.3622 -81.3092
rradius 66.885
rwrist 21.0756
rhand -37.4698 4.98423
rfingers 7.12502
rthumb -10.5278 -24.7321
lclavicle 2.41026e-015 3.18552e-014
lhumerus -30.3226 -21.1571 91.1173
lradius 49.3111
lwrist -5.3627
lhand -15.7204 17.1058
lfingers 7.12502
lthumb 10.4699 46.8251
rfemur -32.1035 3.70369 -3.80303
rtibia 30.9699
rfoot 4.25332 -19.0531
rtoes -4.48063
lfemur -24.4809 -4.26371 -4.15692
ltibia 32.4389
lfoot -16.3029 -10.9909
ltoes -22.5645
1291
root 1.96464 17.3382 -1.16137 -166.557 230.97 -183.453
lowerback 10.124 -1.99436 -5.51864
upperback 3.72003 -3.16817 3.24094
thorax -1.29085 -1.68018 6.85438
lowerneck -6.97603 -1.27225 -13.629
upperneck 41.3241 -1.90467 3.85803
head 16.1632 -2.86346 3.74113
rclavicle 2.06239e-014 -1.44616e-014
rhumerus -40.2431 10.9854 -81.8386
rradius 67.3347
rwrist 22.0214
rhand -37.9107 4.97946
rfingers 7.12502
rthumb -10.9531 -24.7148
lclavicle 2.06239e-014 -1.44616e-014
lhumerus -30.3974 -21.5218 91.1053
lradius 49.4077
lwrist -5.62722
lhand -16.0887 16.6432
lfingers 7.12502
lthumb 10.1146 46.3801
rfemur -31.2813 3.78406 -3.46493
rtibia 30.6245
rfoot 0.937589 -17.8661
rtoes -6.00985
lfemur -24.8683 -4.32052 -3.69452
ltibia 33.1312
lfoot -16.5461 -11.0096
ltoes -22.5297
1292
root 1.87241 17.2852 -1.25268 -166.437 230.803 -183.38
lowerback 10.2612 -1.84984 -5.44679
upperback 3.74489 -2.97762 3.09596
thorax -1.38302 -1.57966 6.64707
lowerneck -7.18101 -1.27642 -13.3114
upperneck 41.4848 -1.92065 3.81491
head 16.2919 -2.82908 3.66938
rclavicle -5.7896e-014 1.23246e-014
rhumerus -40.4028 11.8845 -82.405
rradius 68.2029
rwrist 22.5234
rhand -38.1057 4.98633
rfingers 7.12502
rthumb -11.1412 -24.6979
lclavicle -5.7896e-014 1.23246e-014
lhumerus -30.6101 -21.9989 90.9988
lradius 49.6379
lwrist -5.89252
lhand -16.4056 16.2297
lfingers 7.12502
lthumb 9.80887 45.9813
rfemur -30.6635 3.62738 -2.98598
rtibia 30.2515
rfoot -1.97868 -16.8678
rtoes -4.36331
lfemur -25.4302 -4.13978 -3.2353
ltibia 33.8754
lfoot -16.7033 -11.1467
ltoes -22.9945
1293
root 1.77852 17.2369 -1.34404 -166.275 230.615 -183.365
lowerback 10.3414 -1.68115 -5.2382
upperback 3.82263 -2.74096 2.89148
thorax -1.40462 -1.45908 6.28822
lowerneck -7.31114 -1.32273 -13.0709
upperneck 41.5116 -2.06431 3.97957
head 16.3469 -2.82437 3.68285
rclavicle 1.71452e-014 -8.24956e-015
rhumerus -40.5211 12.789 -82.9995
rradius 69.0629
rwrist 22.8875
rhand -38.1902 4.99326
rfingers 7.12502
rthumb -11.2227 -24.6866
lclavicle 1.71452e-014 -8.24956e-015
lhumerus -30.7506 -22.7582 90.8604
lradius 49.9342
lwrist -5.95856
lhand -17.2034 15.8365
lfingers 7.12502
lthumb 9.03904 45.6228
rfemur -30.2162 3.26815 -2.34493
rtibia 29.9281
rfoot -4.07771 -15.9666
rtoes -2.74533
lfemur -25.9866 -4.01667 -2.74246
ltibia 34.6489
lfoot -16.8961 -11.1278
ltoes -23.6761
1294
root 1.68737 17.1886 -1.42757 -166.22 230.569 -183.333
lowerback 10.4262 -1.40049 -4.90155
upperback 3.95148 -2.34669 2.57863
thorax -1.40469 -1.26026 5.72398
lowerneck -7.09034 -1.35087 -12.4899
upperneck 41.1843 -2.25357 4.04705
head 16.1155 -2.77847 3.57512
rclavicle 2.9271e-014 -1.39149e-014
rhumerus -40.5165 13.3138 -83.5905
rradius 69.8401
rwrist 23.3636
rhand -37.9107 5.34022
rfingers 7.12502
rthumb -10.9532 -24.3541
lclavicle 2.9271e-014 -1.39149e-014
lhumerus -30.8711 -23.8488 90.6898
lradius 50.322
lwrist -5.97534
lhand -18.0804 15.9502
lfingers 7.12502
lthumb 8.19278 45.7713
rfemur -29.9239 2.79889 -1.71378
rtibia 29.7296
rfoot -5.55942 -14.5962
rtoes -3.88092
lfemur -26.384 -3.77073 -2.37454
ltibia 35.4132
lfoot -17.0322 -10.9267
ltoes -24.5456
1295
root 1.60777 17.1433 -1.52384 -166.124 230.418 -183.211
lowerback 10.7603 -1.23785 -4.82917
upperback 3.88892 -2.13893 2.49731
thorax -1.6876 -1.14406 5.59
lowerneck -6.75769 -1.23682 -12.1441
upperneck 40.8128 -2.10787 3.88976
head 15.8059 -2.65931 3.4568
rclavicle 4.03533e-014 1.48095e-014
rhumerus -40.7055 14.5925 -83.9326
rradius 70.7098
rwrist 23.505
rhand -37.7715 5.74905
rfingers 7.12502
rthumb -10.8189 -23.9523
lclavicle 4.03533e-014 1.48095e-014
lhumerus -31.2264 -24.3178 90.8431
lradius 50.7314
lwrist -6.28676
lhand -19.234 16.0819
lfingers 7.12502
lthumb 7.07925 45.9435
rfemur -29.9487 1.83786 -0.981699
rtibia 29.6999
rfoot -6.32708 -12.9631
rtoes -6.16513
lfemur -27.0325 -3.41271 -2.02793
ltibia 36.2023
lfoot -16.9212 -11.0496
ltoes -24.5063
1296
root 1.53076 17.0989 -1.61501 -166.033 230.407 -183.129
lowerback 11.0965 -1.20216 -4.83461
upperback 3.90066 -2.10592 2.55961
thorax -1.86071 -1.12354 5.66881
lowerneck -6.87092 -1.01932 -12.2089
upperneck 40.7227 -1.67659 3.75633
head 15.737 -2.49391 3.47091
rclavicle 3.17559e-014 -4.47266e-015
rhumerus -40.6167 16.394 -84.3384
rradius 71.4023
rwrist 23.7153
rhand -37.7096 6.10631
rfingers 7.12502
rthumb -10.7592 -23.5982
lclavicle 3.17559e-014 -4.47266e-015
lhumerus -31.4848 -24.0887 90.9723
lradius 51.1237
lwrist -6.81592
lhand -20.3953 15.8941
lfingers 7.12502
lthumb 5.9582 45.7903
rfemur -30.1185 0.713876 -0.153811
rtibia 29.825
rfoot -7.15173 -11.568
rtoes -4.70083
lfemur -27.5942 -3.09036 -1.70911
ltibia 37.1063
lfoot -16.9829 -10.9366
ltoes -24.8678
1297
root 1.45791 17.0598 -1.70063 -165.902 230.407 -183.088
lowerback 11.2284 -1.06082 -4.41076
upperback 4.07027 -1.88777 2.30915
thorax -1.81019 -1.01726 5.13751
lowerneck -7.08217 -0.999004 -11.9913
upperneck 40.6498 -1.71077 3.96393
head 15.7438 -2.43606 3.51992
rclavicle 1.28663e-013 -6.09275e-014
rhumerus -40.314 17.3075 -85.0796
rradius 72.0062
rwrist 24.1371
rhand -37.592 6.23741
rfingers 7.12502
rthumb -10.6457 -23.4729
lclavicle 1.28663e-013 -6.09275e-014
lhumerus -31.4004 -24.7984 90.7152
lradius 51.564
lwrist -6.7442
lhand -21.3294 15.9936
lfingers 7.12502
lthumb 5.05625 45.9133
rfemur -30.4458 -0.456809 0.724062
rtibia 30.1843
rfoot -7.92017 -10.5729
rtoes -4.03576
lfemur -28.2085 -2.86597 -1.3903
ltibia 38.1212
lfoot -17.0583 -10.646
ltoes -25.3905
1298
root 1.38967 17.023 -1.78367 -165.618 230.421 -183.267
lowerback 11.3503 -0.836163 -3.78305
upperback 4.32659 -1.53881 2.07948
thorax -1.67828 -0.848627 4.49531
lowerneck -7.42712 -1.08846 -11.6635
upperneck 40.5965 -1.88697 4.10915
head 15.8083 -2.4256 3.5026
rclavicle 1.26228e-014 -4.49253e-014
rhumerus -39.9187 18.0705 -85.5381
rradius 72.6868
rwrist 24.3666
rhand -37.2411 6.51917
rfingers 7.12502
rthumb -10.3073 -23.2082
lclavicle 1.26228e-014 -4.49253e-014
lhumerus -31.1898 -25.6073 90.4815
lradius 52.1183
lwrist -6.87513
lhand -22.126 15.6578
lfingers 7.12502
lthumb 4.28711 45.5944
rfemur -30.8878 -1.53007 1.74128
rtibia 30.7192
rfoot -8.59495 -9.81059
rtoes -4.44843
lfemur -28.9177 -2.66074 -0.929279
ltibia 39.2959
lfoot -16.9766 -10.2716
ltoes -26.2884
1299
root 1.33393 16.9906 -1.88017 -165.302 230.21 -183.361
lowerback 11.6737 -0.797612 -3.26418
upperback 4.44587 -1.44708 1.9872
thorax -1.75767 -0.800021 4.09969
lowerneck -7.80603 -1.0646 -11.7089
upperneck 40.7018 -1.85085 4.32698
head 15.9516 -2.38513 3.61935
rclavicle 3.21037e-014 3.24019e-014
rhumerus -39.5362 19.2348 -85.9324
rradius 73.3048
rwrist 24.7388
rhand -36.6489 6.99322
rfingers 7.12502
rthumb -9.73595 -22.7617
lclavicle 3.21037e-014 3.24019e-014
lhumerus -31.2083 -25.8894 90.3802
lradius 52.7761
lwrist -7.04346
lhand -22.9563 15.4498
lfingers 7.12502
lthumb 3.48525 45.4011
rfemur -31.5545 -2.77966 2.73371
rtibia 31.3849
rfoot -9.17812 -9.22928
rtoes -4.90922
lfemur -30.0198 -2.57401 -0.425034
ltibia 40.635
lfoot -16.596 -10.1888
ltoes -26.8191
1300
root 1.28522 16.9577 -1.97277 -164.961 230.168 -183.367
lowerback 11.9787 -0.889502 -2.85788
upperback 4.49295 -1.53327 1.97793
thorax -1.87881 -0.838955 3.87843
lowerneck -8.05694 -0.839255 -11.8088
upperneck 40.4845 -1.37175 4.20857
head 15.843 -2.19523 3.65146
rclavicle 8.14023e-014 -6.4605e-015
rhumerus -39.2041 21.0316 -86.2518
rradius 74.0219
rwrist 25.1686
rhand -35.8607 7.51047
rfingers 7.12502
rthumb -8.97542 -22.2786
lclavicle 8.14023e-014 -6.4605e-015
lhumerus -31.3292 -25.6106 90.39
lradius 53.4804
lwrist -7.07371
lhand -23.6225 15.2072
lfingers 7.12502
lthumb 2.84189 45.168
rfemur -32.5314 -3.98868 3.60899
rtibia 32.192
rfoot -9.36582 -8.59918
rtoes -6.63474
lfemur -31.2408 -2.25552 -0.0470248
ltibia 42.1434
lfoot -16.0942 -10.2382
ltoes -27.1433
1301
root 1.24636 16.9275 -2.06984 -164.244 230.047 -183.931
lowerback 12.5922 -1.03311 -2.25189
upperback 4.4595 -1.65912 2.21881
thorax -2.24693 -0.893209 3.8242
lowerneck -8.31862 -0.546491 -11.9266
upperneck 40.2437 -0.709173 3.87874
head 15.7089 -1.95693 3.61938
rclavicle -4.74101e-014 3.75703e-014
rhumerus -39.0579 23.2769 -86.4145
rradius 74.8708
rwrist 25.2889
rhand -35.1929 7.82776
rfingers 7.12502
rthumb -8.33093 -21.988
lclavicle -4.74101e-014 3.75703e-014
lhumerus -31.5467 -25.1625 90.5621
lradius 54.2274
lwrist -6.95623
lhand -24.3688 14.8076
lfingers 7.12502
lthumb 2.12122 44.7768
rfemur -33.5491 -4.8181 4.70613
rtibia 33.2075
rfoot -9.57957 -7.89973
rtoes -7.08854
lfemur -32.5417 -2.00556 0.760557
ltibia 43.7953
lfoot -15.4037 -10.1498
ltoes -27.5419
